<svg xmlns="http://www.w3.org/2000/svg" viewBox="0 0 143.21 145.7"><defs><style>.cls-1{fill:#f19641;}</style></defs><g id="Layer_2" data-name="Layer 2"><g id="Layer_1-2" data-name="Layer 1"><path class="cls-1" d="M139.33,12.48A25.35,25.35,0,0,0,129.22,2.8,26.53,26.53,0,0,0,115.6.05a29.69,29.69,0,0,0-13,3.91,28.84,28.84,0,0,0-5.51,4.09,27.23,27.23,0,0,0-4.33,5.35,39.7,39.7,0,0,0-4.8,12,100.46,100.46,0,0,0-2,12c-.31,2.86-.54,5.71-.69,8.57q-7.78,0-15.58,0c-4.72,0-9.44,0-14.16.06-.06-.43-.12-.87-.19-1.3A70.5,70.5,0,0,0,52.48,32.6a45.11,45.11,0,0,0-5.64-11.44,33.63,33.63,0,0,0-9.41-9A28,28,0,0,0,25,7.78a22.45,22.45,0,0,0-6.73.41A19.59,19.59,0,0,0,12,10.82,21.22,21.22,0,0,0,3.7,20.89a16.54,16.54,0,0,0-1.17,6.58A15.05,15.05,0,0,0,3,30.81c.14.55.34,1.09.52,1.59l.58,1.4A34.68,34.68,0,0,0,7,39.24a18.85,18.85,0,0,0,4.28,4.59,17,17,0,0,0,5.56,2.73,29.92,29.92,0,0,0,6,1H23Q35,48.72,47.1,49.62c.16,2.46.26,5,.33,7.43A140.61,140.61,0,0,1,46,79.61c-.11.74-.22,1.48-.34,2.22h-.12A211.45,211.45,0,0,0,21.72,83.9c-2,.26-3.95.6-5.92.94-1,.18-1.93.32-3,.54a24.64,24.64,0,0,0-3.53,1,14.25,14.25,0,0,0-3.94,2.12,13.08,13.08,0,0,0-3.2,3.64A17,17,0,0,0,0,100.2a34.07,34.07,0,0,0,.6,6.89,62.07,62.07,0,0,0,1.44,6.24,36.38,36.38,0,0,0,2.47,6.34,24.7,24.7,0,0,0,4.26,6.07,19.81,19.81,0,0,0,6.57,4.52,19.9,19.9,0,0,0,7.83,1.45A25.19,25.19,0,0,0,37.1,127a25.93,25.93,0,0,0,2.84-2.32,30.86,30.86,0,0,0,2.43-2.58,35.26,35.26,0,0,0,3.86-5.64A57.2,57.2,0,0,0,51,104.6q1.95-6.8,3.22-13.67A214.54,214.54,0,0,1,86,92.88a121.63,121.63,0,0,0,1.93,15.27,67.93,67.93,0,0,0,8.18,22.39,37.11,37.11,0,0,0,7.91,9.23A25.83,25.83,0,0,0,115,145.33a18.09,18.09,0,0,0,12.52-1.93,21.89,21.89,0,0,0,8.61-9.3,23.37,23.37,0,0,0,2.43-12.5,28.07,28.07,0,0,0-1.26-6.29,32.23,32.23,0,0,0-2.63-5.8,37.53,37.53,0,0,0-8.08-9.66,48.16,48.16,0,0,0-10.51-6.74c-7.48-3.57-15.37-5.56-23.1-7.17-1.09-.23-2.19-.46-3.29-.67v-.72c.16-7.74.41-15.58.85-23.29.17-2.91.37-5.8.63-8.68l1.64.1c7.75.48,15.91.91,24.13-.5a42.1,42.1,0,0,0,12.26-3.88,26.65,26.65,0,0,0,10.24-9.07,22.91,22.91,0,0,0,2.91-6.51,24.36,24.36,0,0,0,.81-7A27.61,27.61,0,0,0,139.33,12.48ZM41.08,101.57A49.82,49.82,0,0,1,37,111.28a21.35,21.35,0,0,1-6.07,7A14.49,14.49,0,0,1,23,121a8.71,8.71,0,0,1-6.6-2.69,19.54,19.54,0,0,1-4.24-8,52,52,0,0,1-1.28-5.13,23.85,23.85,0,0,1-.53-4.73A6.93,6.93,0,0,1,11,97.27a3,3,0,0,1,1.8-1.4,14,14,0,0,1,2.1-.6c.82-.19,1.81-.37,2.73-.54,1.86-.37,3.73-.72,5.61-1a205.63,205.63,0,0,1,20.59-2.39Q42.66,96.53,41.08,101.57Zm-18.19-55c-3.76-.75-7.43-2.11-10-4.6s-4.13-5.89-5.29-9.44C4.8,25.85,9,18.67,14.83,15.51A14,14,0,0,1,19.42,14a16.84,16.84,0,0,1,4.91,0,21.43,21.43,0,0,1,9.25,3.9,27,27,0,0,1,7,7.48A37.73,37.73,0,0,1,44.78,35a63.3,63.3,0,0,1,2,11Q34.86,46.21,22.89,46.55Zm46.53,36q-6.87-.6-13.77-.72c0-.31.08-.62.11-.93a149.55,149.55,0,0,0,.73-24.12c-.11-2.15-.27-4.29-.48-6.44q6.74.48,13.48.93,7.77.53,15.52,1c-.08,3-.09,5.94-.06,8.9,0,3.93.15,7.85.24,11.75s.18,7.76.34,11.65C80.2,83.62,74.81,83,69.42,82.5ZM91.58,93.7c7.57,1.25,15,2.71,21.81,5.49a42.1,42.1,0,0,1,9.46,5.31,31.65,31.65,0,0,1,7.31,7.79,25.74,25.74,0,0,1,2.46,4.71,23,23,0,0,1,1.32,5.09,18.61,18.61,0,0,1-1.5,10.24,17.55,17.55,0,0,1-6.72,7.91,14.53,14.53,0,0,1-10.06,1.81,21.17,21.17,0,0,1-9.69-4.71A34,34,0,0,1,98.66,129a60.1,60.1,0,0,1-7.55-21.38,117,117,0,0,1-1.3-14.15ZM134.1,30.54a14.27,14.27,0,0,1-1.78,4.15,18.69,18.69,0,0,1-6.9,6.46,34.59,34.59,0,0,1-9.85,3.43,76,76,0,0,1-11,1.29c-3.76.2-7.55.15-11.49.12H91.91q.47-3.82,1.13-7.6c1.33-7.47,3-15,6.74-20.41a21.08,21.08,0,0,1,16.31-9,17.94,17.94,0,0,1,9,1.81A16.75,16.75,0,0,1,131.76,17a18.88,18.88,0,0,1,2.79,9A15.68,15.68,0,0,1,134.1,30.54Z"/></g></g></svg>