<svg xmlns="http://www.w3.org/2000/svg" viewBox="0 0 191.75 115.31"><defs><style>.cls-1{fill:#f19641;}</style></defs><g id="Layer_2" data-name="Layer 2"><g id="Layer_1-2" data-name="Layer 1"><path class="cls-1" d="M191.73,97.78c-.06,4.69-.2,9.32-.13,14l-1.38.23a139.81,139.81,0,0,1-3.4-13.74q-.69-3.45-1.44-6.81c-.48-2.25-1-4.47-1.59-6.63s-1.25-4.27-2-6.31a53.77,53.77,0,0,0-2.56-5.79A48,48,0,0,0,176,67.5,33.65,33.65,0,0,0,172,63.08a22,22,0,0,0-4.46-3.27,16.84,16.84,0,0,0-4.79-1.91c-3.24-.84-7.06-.65-11.41-.21l-6.91.78c-1.21.13-2.49.22-3.76.28s-2.55.11-3.81.11a119.09,119.09,0,0,1-14.7-.88c-9.47-1.09-18.35-2.69-26.86-2.79A45.26,45.26,0,0,0,72,60.83a26.23,26.23,0,0,0-8.47,7.49,22.24,22.24,0,0,0-4,10.84c-.59,4.23-.47,8.89-.78,13.74a51.47,51.47,0,0,1-.88,7.39,29.31,29.31,0,0,1-2.49,7.3l-3.91,7.72-.69-8.46c-1.24-15.11,0-30-.9-44.7a136.75,136.75,0,0,0-2.82-21.42c-.31-1.74-.85-3.4-1.22-5.1s-.95-3.23-1.5-4.8-1.2-3.06-1.84-4.54a47.25,47.25,0,0,0-2.22-4.18,37.54,37.54,0,0,0-2.58-3.68c-.49-.51-.93-1.11-1.46-1.56l-.74-.75-.79-.66a6.84,6.84,0,0,0-.8-.62l-.82-.58a19.46,19.46,0,0,0-1.74-.94l-.9-.41-.87-.29a13,13,0,0,0-1.81-.46,7.3,7.3,0,0,0-.94-.1,7.93,7.93,0,0,0-1-.08,16.52,16.52,0,0,0-2,.1l-1,.1-1,.22a16.61,16.61,0,0,0-2,.56,19.11,19.11,0,0,0-7.09,4.52,15.31,15.31,0,0,0-2.46,3.34c-.15.31-.35.61-.49.92l-.38,1-.2.48-.13.5-.28,1a17.82,17.82,0,0,0,.63,8.86,22.58,22.58,0,0,0,5.05,8.28,19.28,19.28,0,0,0,4,3.14,19.57,19.57,0,0,0,4.82,2.13l-.14,1.4a19,19,0,0,1-5.87-.65,23.59,23.59,0,0,1-5.59-2.42,25.59,25.59,0,0,1-8.58-9A24.07,24.07,0,0,1,0,23.71a23.62,23.62,0,0,1,4.8-12.83A26.63,26.63,0,0,1,7.1,8.29L8.33,7.1,9.66,6a28.75,28.75,0,0,1,2.8-2c1-.59,2-1.1,3-1.6A27,27,0,0,1,29.31.15a25.1,25.1,0,0,1,3.62.69l1.78.51L36.37,2a29.55,29.55,0,0,1,3.18,1.6c.5.31,1,.64,1.48,1a16.8,16.8,0,0,1,1.43,1,32.78,32.78,0,0,1,8.63,10.23,44.66,44.66,0,0,1,4.48,11.7,52,52,0,0,1,1.1,6l.3,2.93c.11,1,.19,2,.22,2.93a142.06,142.06,0,0,1-.66,20.19,35.15,35.15,0,0,1,8.85-8.86,51.26,51.26,0,0,1,14.29-6.82,60.75,60.75,0,0,1,15.38-2.63c10.14-.46,19.75.83,28.76,1.74q6.78.78,13.16,1c2.15.07,4.18,0,6.37-.1l7-.38a59.05,59.05,0,0,1,7.84.08,34.12,34.12,0,0,1,8.44,1.71,32.06,32.06,0,0,1,14,9.74,44,44,0,0,1,7.78,13.75,52.84,52.84,0,0,1,2,7.39,64.1,64.1,0,0,1,1,7.33c.21,2.42.32,4.82.38,7.2S191.75,95.44,191.73,97.78Z"/></g></g></svg>