<svg xmlns="http://www.w3.org/2000/svg" viewBox="0 0 974.22 32.25"><defs><style>.cls-1{fill:#f19641;}</style></defs><g id="Layer_2" data-name="Layer 2"><g id="Layer_1-2" data-name="Layer 1"><path class="cls-1" d="M15.07,14.8c-.61,4.31-1.84,6.15,3.08,6.77s72-.62,94.15,0,67.7-1.49,82.46.18,78.77-1.67,91.08,0,96-1.32,105.23.48,84.93,1.37,101.54,0,63.39,1.17,69.54,1.16,38.77,3.68,41.85,3.68,25.23-3.69,35.69-3.69,68.31,1.23,75.69,3.69,46.15,3.08,52.92,3.69,86.16-.61,96.62,0,66.46,2.82,72.61.18,16.62-9.41,17.23-13.1-3.07-8-8.61-5.54-6.77,8.72-16,9.59S787.38,16,777.53,17.26,695.69,16,684,16s-33.24-4.52-41.85-4.41-43.69-.12-57.23,0-38.77.73-46.77,2.58-57.85-2.14-73.23-2.61S396,9,381.23,11.58,336.3,8.9,317.84,10.31s-64.61,3.88-75.08,3.88-56-3.93-70.76-4.12-35.08,4.12-39.39,4.12-56-3.95-66.46-4.13-33.23-1.66-39.39,0A59.14,59.14,0,0,0,15.07,14.8Z"/><path class="cls-1" d="M.1,3.11C1.27,7,101.43,6.39,113.33,6.8s130.05.41,139.9,0,79.18,1.44,84.92.31,144.41,1.46,155.49.37,56.2.81,65.23.27,91.07.74,98.46.1,105-.19,115.28,1.43S883,13.77,889.53,13.77s72.62,4.52,77.13,3.7,10.26-4.11,6.16-5.34S838.66,7.21,828.41,7.21s-123.49-4.1-135.8-4.1S517,.24,503.07,1.06s-240.41.52-256-.15-99.28.67-108.72,0S93.23-.45,82.56.72,19.41-.47,14.47.09-1.13-1,.1,3.11Z"/></g></g></svg>