<svg xmlns="http://www.w3.org/2000/svg" viewBox="0 0 189.27 113.85"><defs><style>.cls-1{fill:#f19641;}</style></defs><g id="Layer_2" data-name="Layer 2"><g id="Layer_1-2" data-name="Layer 1"><path class="cls-1" d="M183.93,77.48a33.09,33.09,0,0,0-6.46-6.79A31.93,31.93,0,0,0,169.29,66,49.17,49.17,0,0,0,151.91,63a89,89,0,0,0-16.8,1.5c-2.74.48-5.45,1.07-8.14,1.75-1.34.34-2.68.7-4,1.09-1.06.31-2.06.62-3.14,1a16.29,16.29,0,0,1-5.51-1,17,17,0,0,1-5.39-3.35,24.48,24.48,0,0,1-4.34-5.24,30,30,0,0,1-1.71-3.09c-.25-.53-.5-1.07-.72-1.61l-.31-.79-.24-.67-1.72-8.25a20.75,20.75,0,0,1,.73-9.33c.31-1.13.65-2.25,1-3.35s.72-2.21,1.12-3.29c.82-2.17,1.66-4.27,2.65-6.48.49-1.12,1-2.27,1.49-3.7a16.39,16.39,0,0,0,.68-2.56,9.71,9.71,0,0,0-.06-3.63A9.45,9.45,0,0,0,106,8.44,13.3,13.3,0,0,0,104,6.27a26.48,26.48,0,0,0-3.56-2.71L99.62,3c-.3-.18-.51-.32-.89-.54a22.35,22.35,0,0,0-2.24-1.13A17.12,17.12,0,0,0,91.55.08,19,19,0,0,0,82,1.68a25.24,25.24,0,0,0-7.33,4.93,30.74,30.74,0,0,0-5.26,6.59,26,26,0,0,0-3.14,7.85,14.25,14.25,0,0,0,.68,9,9,9,0,0,0,3.11,3.64,12.34,12.34,0,0,0,4.36,2c2.75.4,4-.41,5.64-1.85-2.48-.3-3.13-.3-5.11-1.29a7.15,7.15,0,0,1-2.4-1.84,4.81,4.81,0,0,1-1-2.34,10.14,10.14,0,0,1,1-5.48,22.86,22.86,0,0,1,3.34-5.31,23.15,23.15,0,0,1,9.68-7.18,10.42,10.42,0,0,1,4.89-.58,8.75,8.75,0,0,1,2.16.63,9.45,9.45,0,0,1,1,.55c.15.08.45.29.67.42l.7.46a26.27,26.27,0,0,1,2.34,1.71,3.77,3.77,0,0,1,.52.54,5.12,5.12,0,0,1-.21.93c-.25.9-.69,2-1.1,3.2-.81,2.36-1.67,4.86-2.27,7.4a63.62,63.62,0,0,0-1.42,7.66,79,79,0,0,0-.38,14.88l-.64,5.36,0,.34-.07.5c-.06.34-.13.69-.21,1a20.58,20.58,0,0,1-.62,2.07A16.61,16.61,0,0,1,89,61.28a12.75,12.75,0,0,1-6.13,4.81,12.52,12.52,0,0,1-3.9.83,31.58,31.58,0,0,1-4.73-.08c-3.36-.27-6.9-.81-10.51-1.36C56.51,64.39,49,63.24,41.1,63.39a53.56,53.56,0,0,0-12,1.46,38.82,38.82,0,0,0-11.51,4.79c-.44.28-.91.56-1.33.85l-1.23.87c-.83.56-1.6,1.22-2.41,1.83a45.6,45.6,0,0,0-4.5,4.2,31.62,31.62,0,0,0-6.87,11A22,22,0,0,0,0,95.25a18.48,18.48,0,0,0,1.34,7.34,17.14,17.14,0,0,0,4.34,6.23A14.88,14.88,0,0,0,7.13,110a15.15,15.15,0,0,0,1.52,1c.51.34,1,.64,1.57.93a14,14,0,0,0,1.61.78,17.58,17.58,0,0,0,6.7,1,29.68,29.68,0,0,0,6.37-.3c2.14-.44,4.69-.62,6.67-1.75s4.92-2.92,6.21-4.92a11.82,11.82,0,0,0,1.69-7,14.35,14.35,0,0,0-3-7.07,13.84,13.84,0,0,0-5.18-3.64c-2.69-1.09-3.34-.25-4.24.19a9.26,9.26,0,0,1,3,2,11.3,11.3,0,0,1,3.16,3.86,6.7,6.7,0,0,1,.65,4.26,6.05,6.05,0,0,1-1.93,3.37A11.23,11.23,0,0,1,24,105.27a22,22,0,0,1-4.52-.58c-1.5-.37-2.71-1.07-3.92-1.47-5-1.61-6.72-6.32-4.86-11.57s6.75-10.1,12.19-13.52c5.21-3.3,11.65-4.64,18.37-4.74s13.74.88,20.94,2c3.61.54,7.29,1.12,11.21,1.44a42.44,42.44,0,0,0,6.21.09c.54,0,1.1-.08,1.68-.17a13.1,13.1,0,0,0,1.75-.3l.89-.2.82-.24c.54-.15,1.08-.35,1.62-.55a22.81,22.81,0,0,0,10.82-8.5c.16-.23.3-.47.44-.7a33.11,33.11,0,0,0,4.57,5.08,26.53,26.53,0,0,0,18.36,7h.8l.84-.29c1-.36,2.32-.76,3.51-1.11s2.44-.68,3.67-1q3.71-.94,7.45-1.61A78.79,78.79,0,0,1,151.77,73a39.78,39.78,0,0,1,13.86,2.37,21.85,21.85,0,0,1,5.63,3.19,22.23,22.23,0,0,1,4.49,4.71A18.58,18.58,0,0,1,179.23,95a11.1,11.1,0,0,1-.53,2.91c-.32.91-.72,1.73-1,2.54a7.07,7.07,0,0,1-2.84,3.73,6.57,6.57,0,0,1-5.13.48,17,17,0,0,1-6.15-2.82,5.26,5.26,0,0,1-2.25-5.34,5.52,5.52,0,0,1,1.88-2.87A7.21,7.21,0,0,1,166,91.82c-1.34,0-2.42-.77-3.74-.18a11.9,11.9,0,0,0-4.39,3.7,10.16,10.16,0,0,0-1.38,5.69,15.66,15.66,0,0,0,2.38,5.46c1.9,2.61,4.85,3.64,7.49,5.08a19.51,19.51,0,0,0,5.44,1.48,16.14,16.14,0,0,0,6.1-.51c1.87-.49,3.3-1.89,4.79-3a17.15,17.15,0,0,0,3.73-4,14.88,14.88,0,0,0,2-4.82,29.19,29.19,0,0,0,.79-4.94A28.59,28.59,0,0,0,183.93,77.48ZM97.85,14c0-.13,0-.18,0,0h0S97.85,14.05,97.85,14Z"/></g></g></svg>