<svg xmlns="http://www.w3.org/2000/svg" viewBox="0 0 614.98 209.26"><defs><style>.cls-1{fill:#f19641;}</style></defs><g id="Layer_2" data-name="Layer 2"><g id="Layer_1-2" data-name="Layer 1"><path class="cls-1" d="M282.9,59.92s-.23,6.16-3.92,6.16-16.82-10.67-9.85-36.52S295.39-.38,315.9,0s33.64,14.77,37.34,23.38,3.28,22.15,3.28,22.15S381.13,22,415.6,20.66,495.18,41.05,519,53s65,28.9,78.36,7.79c10.67-16.82.82-29.12-7-29.12S576,42.15,574.72,35.82c-.79-4.06,0-9.26,8.25-12.55s31.86,3.29,32,25.58c.16,23.79-26.8,38.81-55.27,32.48-35.4-7.87-100.89-51-140.83-50.94S347.49,66.08,345.44,66.9s-4.1-5.75-2.46-9,7.62-25.25-9.78-38.47c-13.07-9.93-37.5-4.53-46.19,3.24C279.21,29.62,272.47,46.8,282.9,59.92Z"/><path class="cls-1" d="M2.88,62.8C-3,53.62-.48,36.32,16.83,26.28,45.13,9.87,86.57,33.62,105,43.46s45.95,22.21,72.59,24c29.38,1.93,34.08-1.75,43.51-10s7-16.41,7-16.41,5.74-3.69,7.79-6.15,12.31-6.16,12.31-2.46-8.61,11.48-9.44,22.15S235.9,78,256,86.18a37.45,37.45,0,0,0,35.31-3.28s-2.87-48-.82-50.87,13.13-5.34,18.87-1.64,14.36,13.53,10.26,32-20.52,29.12-20.52,29.12v29.76l23.8,19.47s-12.31,16.82-15.59,30.77-4.93,37.75-4.93,37.75h-7.79s-4.51-26.67-8.21-41.44a44.18,44.18,0,0,0-14.76-23l18.46-21.34V97.67s-16,7.79-39.39-2.46c-17.32-7.6-24.61-29.13-24.61-29.13s-6.57,12.31-37.75,12.31c-20.2,0-56.61-4.93-89.43-25S34.47,27.92,21.34,38.82,9,62.39,35.29,78.39C35.29,78.39,15.6,82.49,2.88,62.8Zm299.48,9.43s6.57-6.56,6.57-20.92-3.28-16.82-6.57-17.64-7.38-4.11-7,0,5.72,1.69,6.75,5.15S302.36,72.23,302.36,72.23ZM297.85,133l-11.49,14.36a15.69,15.69,0,0,1,5.75,6.15c2.05,4.1,5.74,11.9,5.74,11.9s2-7.38,4.29-11.49a48.34,48.34,0,0,1,6.79-8.61Z"/></g></g></svg>