<svg xmlns="http://www.w3.org/2000/svg" viewBox="0 0 1304 598.92"><defs><style>.cls-1{fill:#f19641;}</style></defs><g id="Layer_2" data-name="Layer 2"><g id="Layer_1-2" data-name="Layer 1"><path class="cls-1" d="M375.32,537.4c-18.47-14.46-8.93-33.85,7.69-38.77s27.73,6.82,33.89,21.59-7.43,44.87-40.66,57.79-67.69,13.23-102.15.31-82.47-62.77-117.54-62.77-46.16,7.69-56.62,19.39-12.31,16-12.31,16-3.69-38.46,32-145.54,16-186.46,1.85-229.54-57.7-61.21-84.92-56c-28.93,5.54-42,46.22-34.46,69.54,8.61,26.77,24,49.23,54.76,46.15s40.62-32,36.93-42.46-12.31-12.31-12.31-12.31,7.38,11.08,5.54,21.54-23.3,39.57-49.23,22.77-25.54-35.38-25.54-57.54,21.85-37.23,21.85-37.23-16,17.47-10.47,37.54c4.82,17.36,21.72,32.69,40,24,24.62-11.69,4.93-35.08,4.93-35.08S75.93,183.24,57.47,182s-23.69-8.3-23.08-25.84c.68-19.31,8.93-26.46,31.7-19.08s29.53,17.23,43.07,54.15,28.31,121.85-.61,210.47S70.39,529.71,74.7,549.4,97.47,583.24,103,583.24s1.84-6.76,0-13.53-4.31-25.85,17.23-31.39,39.42-.8,40.61,20.31c.93,16.31-.61,21.85-10.46,29.38s-22.77-5.38-22.77-5.38,5.42,22.19,27.58,11.75c15.81-7.44,21.89-24.44,20.12-39.14-2.16-17.84-16.93-28-16.93-28s19.7,6.77,35.7,16.62S239,577.71,271,590s83.08,12.93,116.31-4.92,54.15-40,36.92-73.23-36-26.36-50.46-22.15c-15.91,4.62-23.25,27.63-16.62,40C363.93,542.32,375.32,537.4,375.32,537.4Z"/><path class="cls-1" d="M137.26,547.55s13.13,7.8,14.16,11.28-6.16,18.88-8.21,19.08-15.79-7.59-17.23-10.67S133.16,548.78,137.26,547.55ZM136,564c.82,2,3.7,3.08,5.76,2.67s1.63-3.08,2-5.54-4.1-3.69-4.1-3.69C138.09,558.42,135.21,561.91,136,564Z"/><path class="cls-1" d="M344.85,574c-.61,4.31-1.84,6.16,3.08,6.77s72-.61,94.16,0,67.69-1.49,82.46.18,78.77-1.67,91.07,0,96-1.32,105.23.48,84.93,1.37,101.54,0,63.39,1.16,69.54,1.15,38.77,3.68,41.85,3.68,25.23-3.69,35.69-3.69,68.31,1.23,75.69,3.69,46.16,3.08,52.93,3.69,86.15-.61,96.61,0,66.46,2.82,72.62.18,16.61-9.41,17.23-13.1-3.08-8-8.62-5.54-6.77,8.72-16,9.59-142.77-5.9-152.61-4.66-81.85-1.24-93.54-1.24-33.23-4.52-41.85-4.41-43.69-.11-57.23,0-38.77.72-46.77,2.57-57.84-2.13-73.23-2.61-68.92-2.6-83.69,0-44.92-2.68-63.39-1.27S583,573.4,572.55,573.4s-56-3.93-70.77-4.12-35.08,4.12-39.39,4.12-56-3.94-66.46-4.13-33.23-1.66-39.38,0A59.77,59.77,0,0,0,344.85,574Z"/><path class="cls-1" d="M329.88,562.32c1.17,3.89,101.33,3.28,113.23,3.69s130,.41,139.9,0,79.18,1.44,84.92.31,144.41,1.46,155.49.37,56.2.82,65.23.28,91.08.74,98.46.1,105-.2,115.28,1.42,110.36,4.5,116.93,4.5,72.61,4.51,77.12,3.69,10.26-4.1,6.16-5.33-134.16-4.93-144.41-4.93-123.49-4.1-135.8-4.1-175.59-2.87-189.54-2.05-240.41.53-256-.15-99.28.68-108.71,0-45.13-1.35-55.8-.19-63.15-1.19-68.09-.63S328.65,558.22,329.88,562.32Z"/><path class="cls-1" d="M62.39,458.94c5.74,2.55,9.23-1.85,8.62-13.54S59.32,342,62.39,326s-6.15-164.3-3.69-170.46S48.85,4.78,47.62,1.09,36.55,3.55,36.55,16.48s3.69,62.15,4.3,68.92S50.7,305.09,51.32,310s-.62,41.85-1.23,46.16,1.3,81.23,3.73,88S56.85,456.48,62.39,458.94Z"/><path class="cls-1" d="M76.55,459.64c4.84-3.34.61-94.24,0-109s-7.25-83.69-5.47-89.85S62.39,93.4,63,84.17s1.18-39.39,0-49.23S62.39-1,56.85,0s1.85,15.21,0,18.29S61.78,95.46,59.32,102,62.25,209.65,63,218.94s1.88,33.84,3.4,40-3.37,67.69,0,76.92-4,35.69,0,42.46-2.07,69,0,74.46S72.85,462.18,76.55,459.64Z"/></g></g></svg>