<svg xmlns="http://www.w3.org/2000/svg" viewBox="0 0 165.2 165.97"><defs><style>.cls-1{fill:#f19641;}</style></defs><g id="Layer_2" data-name="Layer 2"><g id="Layer_1-2" data-name="Layer 1"><path class="cls-1" d="M162.2,110.84A232.89,232.89,0,0,1,137.81,89a118.07,118.07,0,0,1-10.48-12.49c-3.08-4.44-5.89-9.2-8.64-14-5.47-9.53-10.6-19.28-15.78-29-2.62-4.84-5.2-9.7-7.89-14.49S89.6,9.46,86.79,4.75L84,0,79.85,3.75C78.54,4.94,77,6.24,75.59,7.46s-3,2.46-4.47,3.66c-3,2.39-6.09,4.74-9.23,7-6.27,4.52-12.78,8.7-19.46,12.59-1.67,1-3.38,1.87-5.07,2.81l-5.21,2.73c-3.47,1.83-6.95,3.64-10.47,5.37s-7,3.5-10.58,5.17q-2.65,1.28-5.35,2.46l-2.7,1.2L1.69,51,1,51.29l-.34.14L.5,51.5a1,1,0,0,0-.24.1,1,1,0,0,0-.26.24,2.58,2.58,0,0,0,.2.9l.2.48.38,1,.77,1.89c.51,1.26,1,2.52,1.57,3.77,1.07,2.51,2.13,5,3.24,7.5,2.18,5,4.45,9.94,6.76,14.87,4.66,9.86,9.42,19.61,15,29.22a148.08,148.08,0,0,0,9.33,13.88c3.28,4.44,6.66,8.75,10.14,13,6.92,8.5,14.11,16.66,21.6,24.68L72,166,75.59,164c7.27-3.89,14.46-7.93,21.69-11.9l21.62-12c7.2-4,14.39-8.08,21.51-12.25l21.31-12.62,3.48-2.06Zm-25.38,10.27c-7.44,3.57-14.82,7.26-22.19,11L92.56,143.26c-6.1,3.14-12.23,6.23-18.31,9.39-6.34-6.94-12.67-14-18.88-21-7.07-8.08-14.2-16.2-20.11-24.76-3-4.37-5.84-9-8.71-13.53S20.88,84.16,18,79.55L9.52,65.67,5.24,58.74,3.08,55.28,2,53.55l-.54-.87-.17-.27h.05l.74-.13L3.54,52c1-.21,1.94-.44,2.91-.68,1.93-.49,3.85-1,5.76-1.57C16,48.59,19.8,47.32,23.56,46S31,43.23,34.71,41.77c1.84-.74,3.66-1.53,5.5-2.3s3.68-1.62,5.5-2.48a172.2,172.2,0,0,0,21-11.89c3.34-2.24,6.64-4.55,9.85-7q2.4-1.83,4.75-3.75l.51-.41c1.92,3.18,3.89,6.33,5.88,9.47,3,4.65,6,9.22,9.1,13.81l18.67,27.33,4.64,6.86c1.55,2.29,3.06,4.58,4.74,6.85a158.9,158.9,0,0,0,10.63,12.87c1.86,2.05,3.71,4.11,5.63,6.11.95,1,1.9,2,2.88,3l2.88,3c2.95,3,5.91,6,8.93,8.91Z"/><path class="cls-1" d="M38.1,75.87a65.85,65.85,0,0,1,10.91-9A109.33,109.33,0,0,1,60.93,60,107.6,107.6,0,0,1,73.62,54.6a64.91,64.91,0,0,1,13.72-3.34,65.08,65.08,0,0,1-10.91,9,107.56,107.56,0,0,1-11.92,6.91,107.69,107.69,0,0,1-12.7,5.38A65,65,0,0,1,38.1,75.87Z"/><path class="cls-1" d="M51.4,95.12a65,65,0,0,1,10.9-9A110.41,110.41,0,0,1,86.91,73.84a64.91,64.91,0,0,1,13.72-3.34,64.53,64.53,0,0,1-10.9,9A108.44,108.44,0,0,1,77.8,86.39a111,111,0,0,1-12.69,5.38A65.75,65.75,0,0,1,51.4,95.12Z"/><path class="cls-1" d="M62.72,115.09a64.62,64.62,0,0,1,10.91-9A110.41,110.41,0,0,1,98.24,93.81,65,65,0,0,1,112,90.47a64.53,64.53,0,0,1-10.9,9,108.44,108.44,0,0,1-11.93,6.92,111,111,0,0,1-12.69,5.38A65.6,65.6,0,0,1,62.72,115.09Z"/></g></g></svg>