<svg xmlns="http://www.w3.org/2000/svg" viewBox="0 0 128.99 151.07"><defs><style>.cls-1{fill:#f19641;}</style></defs><g id="Layer_2" data-name="Layer 2"><g id="Layer_1-2" data-name="Layer 1"><path class="cls-1" d="M127.42,74.08a36.35,36.35,0,0,0-2.19-5.42A26.92,26.92,0,0,0,122,63.47a17.82,17.82,0,0,0-5.41-4.61,16.7,16.7,0,0,0-6.8-2,25.14,25.14,0,0,0-11.87,2.25c-3.37,1.47-6.21,3.19-8.93,4.55a29.93,29.93,0,0,1-4,1.73,26.56,26.56,0,0,1-4.28,1.1,34.61,34.61,0,0,1-4.5.48,115.87,115.87,0,0,0,2-15.83c.38-6.08.41-12.16.27-18.21,0-1.51-.07-3-.14-4.53s-.1-3-.22-4.58a57.69,57.69,0,0,0-1.36-9.58,24.49,24.49,0,0,0-4.39-9.89,11.62,11.62,0,0,0-5.82-4A10,10,0,0,0,62.55.1a10.26,10.26,0,0,0-1.8.4,14.42,14.42,0,0,0-1.6.64,15.86,15.86,0,0,0-4.68,3.65,24.53,24.53,0,0,0-3,4.25,42.12,42.12,0,0,0-3.74,9,159.77,159.77,0,0,0-4.16,18c-.89,4.76-1.7,9.51-2.49,14.26a21.48,21.48,0,0,0-6.59-10.37,23.5,23.5,0,0,0-7.88-4.57c-.75-.23-1.51-.46-2.29-.64s-1.56-.3-2.38-.38a14.09,14.09,0,0,0-5.55.41,11.51,11.51,0,0,0-3.08,1.46,12.54,12.54,0,0,0-2.45,2.26,16.89,16.89,0,0,0-1.56,2.21c-.43.69-.75,1.27-1.1,1.9a59.77,59.77,0,0,0-3.66,7.66A65.52,65.52,0,0,0,.4,66.64a64.43,64.43,0,0,0,.35,17l.35,2.1.45,2.08c.26,1.39.7,2.74,1.07,4.11a26.67,26.67,0,0,0,1.72,4.52,19.12,19.12,0,0,0,1.42,2.33,12.74,12.74,0,0,0,.86,1.08l.75.81a26.15,26.15,0,0,0,7.26,5.79,19.63,19.63,0,0,0,2.39,1,17,17,0,0,0,2.64.55,12,12,0,0,0,2.68-.06l1.3-.2,1.2-.38a19.42,19.42,0,0,0,7.31-5c.42-.43.82-.87,1.22-1.31-.12,2.3-.22,4.6-.28,6.91-.17,6.12-.1,12.26.34,18.47A62.74,62.74,0,0,0,34.72,136a37,37,0,0,0,1.46,5,21.26,21.26,0,0,0,2.8,5.29l.52.68.64.68A12,12,0,0,0,41.61,149a12.46,12.46,0,0,0,1.89,1.14,10.23,10.23,0,0,0,2.29.74,10.36,10.36,0,0,0,2.42.18,11,11,0,0,0,2.21-.38c.33-.11.68-.21,1-.33l.88-.4a13.07,13.07,0,0,0,1.58-.89A19.63,19.63,0,0,0,58.26,145a33.26,33.26,0,0,0,2.93-4.32,58.38,58.38,0,0,0,4.09-8.84c1.06-2.93,2-5.71,3-8.58s1.93-5.73,2.82-8.7c.44-1.47.86-3,1.22-4.52s.63-3.12.85-4.67.39-3.09.5-4.62l.14-2.3c0-.79.07-1.59.06-2.38A28.3,28.3,0,0,0,73,89.2a29.45,29.45,0,0,1,6.37,3.55,25.46,25.46,0,0,1,3.29,2.9,35.22,35.22,0,0,1,2.84,3.4c.93,1.27,1.94,2.62,3.12,4a23.58,23.58,0,0,0,4.31,4.1A19.23,19.23,0,0,0,98.82,110a20.58,20.58,0,0,0,6.45.73,22.22,22.22,0,0,0,6.24-1.1,27.44,27.44,0,0,0,2.94-1.13,29.81,29.81,0,0,0,2.77-1.52,22.93,22.93,0,0,0,4.92-4.07l1.08-1.22,1-1.33a14.77,14.77,0,0,0,.88-1.35c.26-.46.56-.9.78-1.38a28.71,28.71,0,0,0,2.21-5.84,32.91,32.91,0,0,0,.91-6A35.41,35.41,0,0,0,127.42,74.08ZM37.27,71.67c-1.1,5.86-2.28,12-2.94,18-.35,2.77-.59,5.54-.78,8.31-1.12.58-2.24,1.14-3.34,1.66a18,18,0,0,1-6.65,2,6.4,6.4,0,0,1-4.77-1.84c-.35-.37-.71-.63-1.06-1s-.69-.76-1-1.18l-1-1.34c-.32-.44-.64-1-1-1.43l-.48-.72a5.68,5.68,0,0,1-.28-.52,8.84,8.84,0,0,1-.41-1.14,18.34,18.34,0,0,1-.66-2.93c-.34-2.39-.74-4.76-.85-7.16A77.07,77.07,0,0,1,12.32,68a79.34,79.34,0,0,1,2.88-14c.72-2.29,1.49-4.57,2.42-6.79.22-.56.46-1.15.67-1.61s.39-.83.53-1.1c.32-.56.22-.59.65-.9a5.45,5.45,0,0,1,2.19-.61c.49-.05,1,0,1.53-.07s1,0,1.57.07a19.94,19.94,0,0,1,6.38,1.77A22.45,22.45,0,0,1,40.57,53l-.15.88C39.44,59.8,38.36,65.75,37.27,71.67Zm10.45,68.92c-.06,0,0,0,0,0s.09,0,.15,0l-.07,0ZM117,85.21a21.39,21.39,0,0,1-.5,3.71,18.18,18.18,0,0,1-1.21,3.39,8.36,8.36,0,0,1-.4.79,5.76,5.76,0,0,1-.43.74l-.45.68-.52.65a14.21,14.21,0,0,1-2.54,2.34,15.17,15.17,0,0,1-1.48,1,15.77,15.77,0,0,1-1.61.76,14.15,14.15,0,0,1-3.37,1A10.72,10.72,0,0,1,98,99.26,17.56,17.56,0,0,1,94.82,97c-1.12-1-2.26-2.1-3.54-3.26a36,36,0,0,0-4.23-3.46,30.53,30.53,0,0,0-4.84-2.67,27.22,27.22,0,0,0-20.51-.7,31.71,31.71,0,0,1,9.55,1.64,30.12,30.12,0,0,1-.66,7.17c-.28,1.4-.7,2.77-1.11,4.23s-.82,2.85-1.29,4.22a75.22,75.22,0,0,1-3.29,8c-1.24,2.66-2.61,5.33-3.9,8l-3.92,8.07A57.88,57.88,0,0,1,53,135.46a26.29,26.29,0,0,1-2.35,3,9.56,9.56,0,0,1-2.26,1.93c-.13,0-.26.14-.36.16a.47.47,0,0,1-.14-.16l-.14-.15-.15-.23a13.35,13.35,0,0,1-1.32-2.68,36.53,36.53,0,0,1-1.06-3.64,78.14,78.14,0,0,1-1.35-8.21c-.67-5.76-1-11.64-1.29-17.54s-.2-11.81-.2-17.75c0-1.48,0-3,0-4.45l0-4.45.12-4.46.16-4.53c.23-6,.44-12,1-18a124.48,124.48,0,0,1,2.92-17.65,74.8,74.8,0,0,1,6.11-16.56,35.87,35.87,0,0,1,4.48-7,18.93,18.93,0,0,1,2.66-2.7,9.07,9.07,0,0,1,2.61-1.58l.52-.13c.14,0,.3-.05.4,0a1.31,1.31,0,0,1,.53.11A4.41,4.41,0,0,1,65.3,10a20,20,0,0,1,2.78,6.5,61.38,61.38,0,0,1,1.52,8.2l1.05,8.86C72,44.69,73.4,55.76,74.45,67c-1,0-2.06,0-3.1-.06-3.21-.18-6.49-.59-9.8-1.1a50.41,50.41,0,0,0,9.13,4.36A37,37,0,0,0,81,72.39a29.69,29.69,0,0,0,5.48-.2A32.9,32.9,0,0,0,91.82,71c3.42-1,6.47-2.26,9.29-3a20.41,20.41,0,0,1,4-.73,12.94,12.94,0,0,1,3.51.12,6.83,6.83,0,0,1,2.53,1,7.12,7.12,0,0,1,1.86,2,21.12,21.12,0,0,1,1.77,3.28,25.42,25.42,0,0,1,1.33,3.79A24.45,24.45,0,0,1,117,85.21Z"/></g></g></svg>