<svg xmlns="http://www.w3.org/2000/svg" viewBox="0 0 42.29 460.43"><defs><style>.cls-1{fill:#f19641;}</style></defs><g id="Layer_2" data-name="Layer 2"><g id="Layer_1-2" data-name="Layer 1"><path class="cls-1" d="M25.85,458.94c5.73,2.55,9.23-1.85,8.61-13.54S22.77,342,25.85,326s-6.16-164.3-3.7-170.46S12.31,4.78,11.08,1.09,0,3.55,0,16.48,3.69,78.63,4.31,85.4,14.15,305.09,14.77,310s-.62,41.85-1.23,46.16,1.31,81.23,3.73,88S20.31,456.48,25.85,458.94Z"/><path class="cls-1" d="M40,459.64c4.84-3.34.62-94.24,0-109s-7.24-83.69-5.47-89.85S25.85,93.4,26.46,84.17s1.18-39.39,0-49.23S25.85-1,20.31,0s1.84,15.21,0,18.29S25.23,95.46,22.77,102s2.93,107.64,3.69,116.93,1.88,33.84,3.4,40-3.37,67.69,0,76.92-4,35.69,0,42.46-2.07,69,0,74.46S36.31,462.18,40,459.64Z"/></g></g></svg>